<?xml version='1.0' encoding='utf-8'?>
<svg xmlns="http://www.w3.org/2000/svg" viewBox="0 0 500 500"> <g transform="translate(22.606 22.606)" fill-rule="evenodd"> <path d="m227.39-19.217h-227.09c-10.781 0-19.521 8.7401-19.521 19.521v454.18c0 10.78 8.7401 19.521 19.521 19.521h454.18c10.781 0 19.521-8.7411 19.521-19.521v-454.18c0-10.781-8.7401-19.521-19.521-19.521h-227.09z" fill="#fff" stroke="#000" stroke-width="6.7782"/> <g transform="matrix(1.3874 0 0 1.3874 -82.753 -69.013)"> <path d="m148.56 348.37c-12.924 0-23.328-10.404-23.328-23.328v-222.8c0-12.924 10.404-23.328 23.328-23.328h149.97c12.926 0 23.328 10.404 23.328 23.328v222.8c0 12.924-10.402 23.328-23.328 23.328v-0.035h-149.97v0.035z"/> <path d="m151.26 83.125h144.58c12.457 0 22.465 10.08 22.465 22.572v215.89c0 12.492-10.008 22.572-22.465 22.572h-144.58c-12.455 0-22.464-10.08-22.464-22.572v-215.89c0-12.491 10.009-22.572 22.464-22.572z" fill="#fff"/> <g transform="translate(3.8265e-6)"> <path d="m126.28 333.29c-12.707-2.232-21.131-14.291-18.899-27l38.7-219.42c2.232-12.744 14.256-21.168 27-18.9l147.71 26.028c12.709 2.232 21.168 14.292 18.938 27l-38.701 219.42c-2.232 12.744-14.291 21.168-27 18.936v-0.035l-147.74-26.03z"/> <path d="m175.02 72.578 142.38 25.091c12.275 2.16 20.375 13.824 18.18 26.136l-37.477 212.58c-2.16 12.313-13.752 20.484-26.027 18.324l-142.38-25.092c-12.239-2.16-20.375-13.824-18.215-26.137l37.476-212.58c2.196-12.311 13.823-20.483 26.063-18.322z" fill="#fff"/> <path d="m106.98 314.57c-12.133-4.393-18.324-17.713-13.933-29.846v-0.035l76.212-209.34c4.428-12.168 17.748-18.36 29.881-13.968l140.94 51.336c12.133 4.392 18.359 17.712 13.932 29.844l-76.176 209.38c-4.428 12.168-17.748 18.359-29.881 13.932l-140.97-51.3z"/> <path d="m200.26 66.277 135.86 49.464c11.701 4.248 17.641 17.136 13.357 28.872l-73.801 202.86c-4.283 11.773-17.137 17.785-28.836 13.537l-135.86-49.465c-11.701-4.248-17.677-17.135-13.393-28.871l73.836-202.86c4.286-11.735 17.138-17.784 28.837-13.536z" fill="#fff"/> <path d="m186.29 108.76 8.64 3.132 1.188-16.74-9.828 13.608zm8.1 10.945-12.673-4.644-4.536 6.228-8.172-2.988 25.524-33.84 9.684 3.528-2.196 42.336-8.172-2.952 0.541-7.668z"/> <path d="m174.336,130.105c-1.008-.36-2.232-.54-3.672-.432-17.316,5.508-5.221,28.908-2.771,46.116l.215.18c14.185-12.708 36.576-24.156 27.396-37.26-8.136-7.92-16.056,5.76-16.344,6.264 .108-.504 2.161-12.384-4.824-14.868z"/> <path d="m260.81 318.56-8.641-3.168-1.188 16.74 9.829-13.572zm-8.1-10.978 12.707 4.643 4.5-6.227 8.172 2.988-25.523 33.84-9.684-3.529 2.195-42.336 8.172 2.988-0.539 7.633z"/> <path d="m272.832,297.002c1.008.359 2.232.539 3.672.432 17.316-5.508 5.221-28.943 2.771-46.152l-.215-.145c-14.184,12.672-36.576,24.156-27.432,37.225 8.172,7.957 16.092-5.725 16.379-6.229-.107.469-2.159,12.347 4.825,14.869z"/> <path d="m220.884,161.713c-2.196-.756-4.788-1.116-7.884-.864-37.116,11.952-11.305,62.424-6.191,99.539l.432.361c30.492-27.469 78.587-52.38 59.003-80.533-17.389-17.064-34.451,12.492-35.064,13.572 .179-1.079 4.716-26.71-10.296-32.075z"/> </g> </g> </g> </svg>