<?xml version='1.0' encoding='utf-8'?>
<svg xmlns="http://www.w3.org/2000/svg" version="1.1" viewBox="0 0 460.64 460.63"> <g transform="translate(-134.93 -145.65)"> <g transform="matrix(0 5.9828 -5.9828 0 699.18 -3236.7)"> <rect x="602.99" y="21.425" width="1.613" height="10.752"/> <rect transform="matrix(.8677 .4971 -.4971 .8677 97.077 -303.26)" x="617.41" y="25.355" width="1.613" height="10.752"/> <rect transform="matrix(.5051 .8631 -.8631 .5051 346.82 -522.21)" x="627.96" y="35.936" width="1.612" height="10.752"/> <rect transform="matrix(.0085 1 -1 .0085 683.03 -577.36)" x="631.85" y="50.365" width="1.612" height="10.751"/> <rect transform="matrix(-.4893 .8721 -.8721 -.4893 997.78 -443.88)" x="628.04" y="64.814" width="1.613" height="10.753"/> <rect transform="matrix(-.8588 .5124 -.5124 -.8588 1190.8 -166.57)" x="617.55" y="75.457" width="1.612" height="10.752"/> <rect transform="matrix(-.9999 .017 -.017 -.9999 1209.3 159.44)" x="603.16" y="79.47" width="1.613" height="10.752"/> <rect transform="matrix(.9947 .1024 -.1024 .9947 5.6119 -62.061)" x="606.59" y="21.727" width="1.058" height="3.776"/> <rect transform="matrix(.979 .2038 -.2038 .979 17.73 -123.91)" x="609.86" y="22.232" width="1.059" height="3.776"/> <rect transform="matrix(.9528 .3035 -.3035 .9528 36.511 -185.03)" x="613.07" y="23.071" width="1.059" height="3.776"/> <rect transform="matrix(.9166 .3998 -.3998 .9166 61.862 -244.35)" x="616.17" y="24.234" width="1.059" height="3.776"/> <rect transform="matrix(.809 .5878 -.5878 .809 136.37 -360.46)" x="622.28" y="27.712" width="1.06" height="3.776"/> <rect transform="matrix(.7443 .6678 -.6678 .7443 181.04 -409.53)" x="624.86" y="29.793" width="1.059" height="3.776"/> <rect transform="matrix(.6722 .7404 -.7404 .6722 230.98 -453.63)" x="627.22" y="32.128" width="1.059" height="3.776"/> <rect transform="matrix(.592 .8059 -.8059 .592 286.46 -492.69)" x="629.32" y="34.692" width="1.059" height="3.776"/> <rect transform="matrix(.405 .9143 -.9143 .405 415.85 -553.73)" x="632.86" y="40.765" width="1.058" height="3.777"/> <rect transform="matrix(.309 .9511 -.9511 .309 481.98 -571.9)" x="634.04" y="43.861" width="1.059" height="3.776"/> <rect transform="matrix(.2094 .9778 -.9778 .2094 550.24 -582.65)" x="634.91" y="47.062" width="1.059" height="3.776"/> <rect transform="matrix(.1079 .9942 -.9942 .1079 619.26 -585.67)" x="635.44" y="50.335" width="1.059" height="3.776"/> <rect transform="matrix(-.1088 .9941 -.9941 -.1088 764.08 -566.5)" x="635.45" y="57.364" width="1.059" height="3.776"/> <rect transform="matrix(-.2114 .9774 -.9774 -.2114 830.87 -545.36)" x="634.92" y="60.637" width="1.058" height="3.776"/> <rect transform="matrix(-.3099 .9508 -.9508 -.3099 893.72 -517.27)" x="634.06" y="63.839" width="1.059" height="3.777"/> <rect transform="matrix(-.4058 .914 -.914 -.4058 953.35 -482.16)" x="632.88" y="66.936" width="1.059" height="3.776"/> <rect transform="matrix(-.5935 .8048 -.8048 -.5935 1064 -387.6)" x="629.36" y="73.02" width="1.058" height="3.777"/> <rect transform="matrix(-.6727 .7399 -.7399 -.6727 1107.4 -334.94)" x="627.26" y="75.588" width="1.06" height="3.776"/> <rect transform="matrix(-.7452 .6668 -.6668 -.7452 1144.8 -277.77)" x="624.91" y="77.925" width="1.059" height="3.776"/> <rect transform="matrix(-.8099 .5866 -.5866 -.8099 1175.3 -217.17)" x="622.33" y="80.011" width="1.059" height="3.775"/> <rect transform="matrix(-.9171 .3986 -.3986 -.9171 1216.5 -82.123)" x="616.24" y="83.508" width="1.058" height="3.777"/> <rect transform="matrix(-.9531 .3026 -.3026 -.9531 1224.7 -16.649)" x="613.14" y="84.674" width="1.058" height="3.776"/> <rect transform="matrix(-.9792 .2029 -.2029 -.9792 1225.9 49.105)" x="609.93" y="85.517" width="1.059" height="3.776"/> <rect transform="matrix(-.9948 .1015 -.1015 -.9948 1220.1 113.77)" x="606.65" y="86.026" width="1.059" height="3.776"/> <rect transform="matrix(-.8674 -.4976 .4976 -.8674 1060.4 444.27)" x="588.59" y="75.488" width="1.613" height="10.752"/> <rect transform="matrix(-.5051 -.8631 .8631 -.5051 810.57 605.35)" x="578.04" y="64.906" width="1.612" height="10.752"/> <rect transform="matrix(-.0088 -1 1 -.0088 524.15 631.28)" x="574.15" y="50.478" width="1.612" height="10.752"/> <rect transform="matrix(.49 -.8717 .8717 .49 259.06 525.62)" x="577.95" y="36.028" width="1.613" height="10.752"/> <rect transform="matrix(.8588 -.5124 .5124 .8588 67.456 306.25)" x="588.44" y="25.387" width="1.612" height="10.752"/> <rect transform="matrix(-.9947 -.1033 .1033 -.9947 1188.7 237.51)" x="599.96" y="86.092" width="1.059" height="3.776"/> <rect transform="matrix(-.979 -.2038 .2038 -.979 1164.1 294.84)" x="596.68" y="85.587" width="1.059" height="3.777"/> <rect transform="matrix(-.9528 -.3035 .3035 -.9528 1133.7 349.45)" x="593.48" y="84.748" width="1.059" height="3.776"/> <rect transform="matrix(-.9167 -.3995 .3995 -.9167 1098.4 399.92)" x="590.37" y="83.585" width="1.058" height="3.776"/> <rect transform="matrix(-.8091 -.5877 .5877 -.8091 1009.8 492.01)" x="584.27" y="80.107" width="1.059" height="3.777"/> <rect transform="matrix(-.7446 -.6676 .6676 -.7446 962.35 528.08)" x="581.68" y="78.026" width="1.059" height="3.776"/> <rect transform="matrix(-.6717 -.7408 .7408 -.6717 911.88 559.26)" x="579.33" y="75.691" width="1.06" height="3.777"/> <rect transform="matrix(-.5927 -.8054 .8054 -.5927 859.8 584.8)" x="577.23" y="73.127" width="1.059" height="3.776"/> <rect transform="matrix(-.4043 -.9146 .9146 -.4043 743.32 622.01)" x="573.69" y="67.052" width="1.059" height="3.777"/> <rect transform="matrix(-.3086 -.9512 .9512 -.3086 687.24 631.23)" x="572.5" y="63.958" width="1.059" height="3.776"/> <rect transform="matrix(-.209 -.9779 .9779 -.209 630.47 635.27)" x="571.64" y="60.756" width="1.059" height="3.776"/> <rect transform="matrix(-.108 -.9942 .9942 -.108 574.35 634.08)" x="571.11" y="57.484" width="1.058" height="3.777"/> <rect transform="matrix(.1089 -.9941 .9941 .1089 457.34 614.87)" x="571.1" y="50.455" width="1.058" height="3.776"/> <rect transform="matrix(.2103 -.9776 .9776 .2103 403.87 598.11)" x="571.62" y="47.182" width="1.059" height="3.776"/> <rect transform="matrix(.3099 -.9508 .9508 .3099 351.85 576.47)" x="572.48" y="43.98" width="1.059" height="3.776"/> <rect transform="matrix(.4055 -.9141 .9141 .4055 302.29 550.31)" x="573.67" y="40.883" width="1.06" height="3.776"/> <rect transform="matrix(.5935 -.8048 .8048 .5935 205.32 479.89)" x="577.19" y="34.798" width="1.058" height="3.776"/> <rect transform="matrix(.6726 -.74 .74 .6726 164.57 440.22)" x="579.28" y="32.231" width="1.058" height="3.777"/> <rect transform="matrix(.745 -.6671 .6671 .745 127.25 396.44)" x="581.64" y="29.892" width="1.058" height="3.777"/> <rect transform="matrix(.8094 -.5872 .5872 .8094 94.005 349.04)" x="584.21" y="27.808" width="1.059" height="3.776"/> <rect transform="matrix(.9171 -.3986 .3986 .9171 38.521 237.67)" x="590.31" y="24.311" width="1.058" height="3.777"/> <rect transform="matrix(.9532 -.3022 .3022 .9532 20.207 180.67)" x="593.41" y="23.144" width="1.058" height="3.776"/> <rect transform="matrix(.9793 -.2025 .2025 .9793 7.473 121.42)" x="596.62" y="22.302" width="1.059" height="3.776"/> <rect transform="matrix(.9949 -.101 .101 .9949 .6772 60.742)" x="599.9" y="21.792" width="1.059" height="3.776"/> <path d="m639.83 55.815c0 9.614-3.743 18.652-10.541 25.451-6.799 6.798-15.838 10.542-25.451 10.542-9.614 0-18.652-3.744-25.451-10.542-6.798-6.799-10.542-15.837-10.542-25.451s3.744-18.652 10.542-25.45 15.837-10.542 25.451-10.542c9.613 0 18.652 3.744 25.451 10.542 6.798 6.798 10.541 15.836 10.541 25.45zm-35.99-37.076c-9.903 0-19.214 3.856-26.217 10.859-7.002 7.003-10.859 16.313-10.859 26.217s3.857 19.214 10.859 26.217c7.003 7.003 16.313 10.859 26.217 10.859s19.214-3.856 26.217-10.859 10.859-16.313 10.859-26.217-3.856-19.214-10.859-26.217-16.314-10.859-26.217-10.859z"/> <path d="m642.06 55.815c0 10.211-3.976 19.81-11.196 27.03-7.22 7.219-16.818 11.195-27.029 11.195-10.21 0-19.81-3.977-27.03-11.195-7.22-7.221-11.196-16.819-11.196-27.03 0-10.21 3.976-19.81 11.196-27.03s16.819-11.196 27.03-11.196 19.81 3.976 27.029 11.196c7.22 7.221 11.196 16.82 11.196 27.03zm-38.22-38.496c-10.283 0-19.95 4.004-27.221 11.275s-11.275 16.939-11.275 27.221c0 10.283 4.004 19.95 11.275 27.222 7.271 7.271 16.938 11.275 27.221 11.275s19.949-4.005 27.221-11.275c7.271-7.271 11.275-16.938 11.275-27.222 0-10.282-4.004-19.95-11.275-27.221s-16.938-11.275-27.221-11.275z"/> <path d="m641.38 55.815c0 5.068-0.993 9.985-2.95 14.614-1.891 4.471-4.598 8.485-8.047 11.934-3.447 3.447-7.463 6.154-11.934 8.046-4.628 1.958-9.545 2.95-14.613 2.95s-9.985-0.992-14.614-2.95c-4.47-1.892-8.486-4.599-11.934-8.046-3.448-3.448-6.155-7.463-8.046-11.934-1.958-4.629-2.951-9.546-2.951-14.614s0.993-9.984 2.951-14.613c1.891-4.471 4.598-8.486 8.046-11.934s7.463-6.155 11.934-8.046c4.628-1.958 9.545-2.95 14.614-2.95s9.985 0.992 14.613 2.95c4.471 1.891 8.486 4.598 11.934 8.046 3.449 3.448 6.156 7.463 8.047 11.934 1.957 4.629 2.95 9.545 2.95 14.613zm-37.54-37.737c-5.094 0-10.037 0.998-14.689 2.966-4.494 1.9-8.529 4.622-11.995 8.087s-6.187 7.502-8.088 11.995c-1.968 4.652-2.965 9.595-2.965 14.689s0.998 10.036 2.965 14.689c1.901 4.494 4.622 8.53 8.088 11.995 3.466 3.466 7.501 6.188 11.995 8.088 4.653 1.968 9.595 2.966 14.689 2.966 5.095 0 10.037-0.998 14.689-2.966 4.494-1.9 8.529-4.622 11.996-8.088 3.465-3.465 6.186-7.501 8.087-11.995 1.968-4.653 2.966-9.595 2.966-14.689s-0.998-10.037-2.966-14.689c-1.901-4.493-4.622-8.529-8.087-11.995-3.467-3.466-7.502-6.187-11.996-8.087-4.652-1.969-9.594-2.966-14.689-2.966z"/> <circle cx="603.84" cy="55.815" r="2.167" d="m 606.003,55.814999 c 0,1.196801 -0.9702,2.167 -2.167,2.167 -1.1968,0 -2.167,-0.970199 -2.167,-2.167 0,-1.196801 0.9702,-2.167 2.167,-2.167 1.1968,0 2.167,0.970199 2.167,2.167 z"/> <rect transform="matrix(.566 -.8244 .8244 .566 217.27 510.9)" x="592.62" y="37.146" width="2.486" height="23.898"/> <rect x="603.84" y="54.936" width="31.422" height="1.761"/> </g> </g> </svg>