<?xml version='1.0' encoding='utf-8'?>
<svg xmlns="http://www.w3.org/2000/svg" width="91.44mm" height="91.44mm" clip-rule="evenodd" fill-rule="evenodd" image-rendering="optimizeQuality" shape-rendering="geometricPrecision" text-rendering="geometricPrecision" version="1.1" viewBox="0 0 415 415"> <defs> <style type="text/css">.fil1 {fill:white;fill-rule:nonzero} .fil0 {fill:url(#a)}</style> <linearGradient id="a" x1="390.08" x2="24.899" y1="390.08" y2="24.898" gradientUnits="userSpaceOnUse"> <stop stop-color="#48CFAE" offset="0"/> <stop stop-color="#4FC0E8" offset="1"/> </linearGradient> </defs> <polygon class="fil0" points="0 0 415 0 415 415 0 415"/> <path class="fil1" d="m210 256h-1c0 1-1 1-2 1 0 0-1 0-1-1h-1l-33-33c-2-2-2-4 0-6 1-1 4-1 5 0l26 26v-104c0-2 2-4 4-4 3 0 4 2 4 4v104l27-26c1-1 4-1 5 0 2 2 2 4 0 6l-33 33zm-95-12h39c3 0 4 2 4 4v24h99v-24c0-2 1-4 4-4h39v-129h-185v129zm193 4v56h-1v2h-1v1h-2v1h-193c-2 0-4-2-4-4v-193c0-2 2-4 4-4h193c2 0 4 2 4 4v137zm-158 4h-35v48h185v-48h-35v24c0 2-2 4-4 4h-107c-2 0-4-2-4-4v-24z"/> </svg>