<?xml version='1.0' encoding='utf-8'?>
<svg xmlns="http://www.w3.org/2000/svg" width="1272px" height="1273px" version="1.1" viewBox="-276 75 1272 1273"> <g stroke-linejoin="miter"> <g fill="#222b32"> <path d="m881.15 729.95-4.587 68.184q-32.612 206.06-190.84 329.6-159.33 123.44-375.24 100.11-206.06-32.612-329.6-190.84-39.585-51.148-65.211-111.46l-21.539-62.009q-17.75-64.002-17.949-133.58 5.3883-213.52 147.17-355.31 141.79-141.79 355.31-147.17 213.52 5.3883 355.31 147.17 141.79 141.79 147.17 355.31"/> </g> <g fill="#fdd908"> <path d="m288.69 348.08c-30.258 0.6022-73.416 2.8943-76.671 4.0978-2.8932 1.0843-4.2188 6.0282-1.688 6.0282 1.688 0 1.5676 7.9559-0.24073 10.85-1.2056 1.8071-1.0848 2.6505 0.48271 4.4592 1.6877 1.808 2.0492 5.4256 2.4108 18.203 0.24073 8.6787 0.12035 15.913-0.2414 15.913-0.36144 0-1.6877-2.5318-2.8932-5.546-4.3401-10.728-20.252-23.025-33.875-26.279-7.5947-1.9306-22.302-2.7722-29.173-1.688-23.869 3.4954-46.895 26.641-55.575 55.818-9.2815 31.221-3.375 71.967 15.551 106.09 13.864 25.072 47.981 60.755 76.43 79.923 9.6435 6.5102 15.672 9.8878 43.519 25.075 3.9778 2.1707 9.5239 6.3887 12.296 9.4053 5.6653 6.1467 6.992 10.246 1.6876 5.0617-8.5593-8.0776-24.834-3.7362-29.776 8.0754-6.6303 16.035 7.8357 31.948 26.521 29.053 10.488-1.5664 15.913-7.1114 17.359-17.601 0.72379-5.0613 1.2052-5.906 1.9298-3.9776 0.60174 1.3265 5.0622 11.576 10.004 22.906 6.5102 14.586 9.1624 22.06 9.2831 25.917 0.11993 3.0142 0.60272 6.2697 1.0841 7.4743 0.48269 1.0855 0.36163 5.0607-0.36081 8.9209-2.2905 12.295-1.8084 15.43 2.8932 19.65 2.4108 2.0486 6.6299 4.8236 9.4031 6.2698 2.7724 1.447 7.9556 4.4592 11.452 6.869 9.8853 6.5107 12.658 14.707 5.5453 16.397-4.7015 1.2047-8.92 6.0258-8.921 10.366 0 6.5096 4.7018 13.262 21.217 30.138 18.203 18.565 19.409 20.733 20.614 37.37l0.72422 10.49-6.6307 0.72315c-14.828 1.8064-23.266 6.9902-28.691 17.719-3.0142 5.9068-4.2192 7.1131-7.4748 7.8368-20.373 3.9788-27.727 8.8001-31.222 20.133-2.1703 7.1134-2.2907 7.1134-13.141 10.125-9.7642 2.5332-17.118 6.6306-20.494 11.333-3.7375 5.1858-8.0773 24.835-9.524 42.798-0.7238 8.5592-1.8081 23.024-2.5312 31.947-1.8088 22.301-3.0143 24.35-17.118 29.653-18.445 6.7522-26.401 13.505-31.946 26.883-7.5948 18.687-0.12074 29.053 27.606 37.975 23.387 7.5945 51.837 12.536 96.802 16.515 23.507 2.049 37.973 2.6528 76.55 2.6506 47.98 0.1199 69.196-1.0864 108.38-5.79 40.504-4.9395 73.898-14.464 84.265-23.988 6.8713-6.2683 8.0772-14.948 3.3757-26.281-5.5461-13.621-14.346-20.853-33.031-27.485-9.1617-3.2576-12.056-6.1484-13.984-13.622-0.36169-1.8079-1.5673-15.67-2.5315-30.741-2.0502-30.619-3.1344-38.697-6.6306-50.027-3.9783-12.899-7.2322-15.675-25.195-21.34l-10.127-3.1336-2.17-6.9902c-1.0844-3.8593-3.2544-8.3192-4.701-9.7654-3.496-3.7367-11.934-7.2347-21.94-9.2823l-8.0773-1.5675-3.9776-7.836c-5.1836-10.007-12.537-14.828-26.039-17.117l-9.0417-1.4495 0.84333-10.005c1.2058-16.634 3.1348-20.01 22.181-39.42 18.686-19.047 22.422-25.074 19.288-31.705-0.84346-1.9296-3.6157-4.3395-6.6302-5.7874-4.0985-1.9283-5.063-3.0138-5.1834-5.5455 8e-5 -5.063 4.0986-8.9187 18.203-16.995 16.998-9.6473 17.601-10.731 15.551-25.316-1.2056-7.9575-1.2055-10.97-0.12032-12.176 0.72344-0.96545 0.96416-3.2556 0.6031-5.3044-0.7238-3.6161 0.7232-7.5971 10.97-29.9 2.0497-4.7001 4.8219-11.09 6.0275-14.225 1.2052-3.1331 2.5315-6.0252 3.0139-6.2665 0.48151-0.3628 1.2052 2.0486 1.6873 5.3017 1.2059 9.4049 6.7506 14.588 16.878 16.155 18.203 2.8938 33.272-13.262 26.763-28.45-3.135-7.2327-11.815-12.898-19.891-12.898-2.8935 0.0016-4.2201 0.6028-10.97 4.7002l-2.7729 1.5664 2.6525-3.6162c4.3397-6.1474 9.8852-10.005 29.776-20.733 31.705-16.998 46.05-27.729 68.834-50.874 27.846-28.332 40.504-47.496 48.943-73.898 5.4241-17.362 7.2329-28.812 7.2335-47.016-0.1206-14.586-0.60337-18.324-3.3757-27.725-7.2324-24.714-22.18-44.002-40.746-52.804-16.515-7.8322-36.406-7.4719-54.488 0.84628-10.368 4.8219-17.48 11.21-22.423 20.013l-3.6168 6.6293 0.72337-16.275c0.4827-12.296 1.0852-16.516 2.4114-17.238 2.2899-1.2063 2.2899-3.7374-3.7e-4 -5.6647-1.9289-1.5697-1.5669-5.5473 0.96487-10.731 2.893-5.9071-1.3263-6.6299-51.596-8.5599-31.825-1.2058-159.73-2.2918-193.48-1.6866zm-120.07 50.51c3.8584 0.9671 9.4028 3.2565 12.296 4.9425 6.0278 3.4956 16.034 14.106 20.373 21.338 3.9784 6.9936 7.8358 21.699 7.8357 30.137l0.00107 7.1132-4.2205-3.7359c-4.8212-4.2201-12.537-6.6305-17.72-5.5463-9.2831 2.0511-15.31 12.539-13.14 22.423 2.4111 10.488 8.921 15.912 19.288 15.911 10.126 7.9e-4 15.913-3.8583 19.288-13.019 1.447-3.7381 2.5315-7.4734 2.5315-8.4388 0-0.96357 0.48237-1.8064 1.0848-1.8064 0.48278-6e-5 1.3266 5.4247 1.8083 12.055 0.8438 11.692 3.0138 30.741 5.4251 47.616 8.5591 58.108 13.381 82.458 22.543 112.96 0.36145 1.0842-3.3756-1.929-8.1978-6.753-5.425-5.3032-16.034-13.622-27.486-21.216-23.145-15.43-32.429-22.903-47.136-38.335-30.74-31.944-50.511-73.294-50.51-105.72 0-27.487 20.132-64.496 38.214-70.162 6.2686-1.9276 9.5238-1.8073 17.721 0.24048zm424.1 2.2902c8.5589 3.6173 18.685 16.153 26.28 32.429 14.948 32.426 10.126 65.697-15.672 108.13-17.36 28.448-39.54 49.788-78.357 75.344-6.9925 4.5831-16.275 11.935-20.735 16.275-4.5809 4.3381-8.1976 7.3531-8.1976 6.5106 0-0.72474 0.9646-4.3408 2.2902-7.9566 7.5952-22.059 21.217-98.853 26.039-146.23 0.3622-3.9787 1.0857-9.4035 1.4474-12.056l0.7235-4.8218 1.5662 6.5096c3.1346 11.935 9.1627 17 20.494 16.999 10.85-1.2e-4 17.842-6.1503 19.288-17.122 2.5315-18.684-17.601-28.447-30.982-15.066l-3.8573 3.8574 0.72303-10.247c0.36183-5.6658 1.6881-13.019 2.7723-16.273 4.099-11.697 12.418-23.267 21.459-29.899 10.126-7.2338 25.677-10.125 34.719-6.3888zm-396.85 59.796c2.0497 0 4.8227 3.8567 4.8226 6.6293 0 1.6877 1.3266 3.7354 3.2546 5.184 2.0497 1.4466 2.8936 3.0117 2.4112 4.2191-1.2053 3.2548-6.7507 6.0276-12.296 6.1472-9.5228 0.24139-16.154-9.4018-12.175-17.238 1.9284-3.6168 7.9559-6.5108 11.331-5.4272 0.96422 0.24304 2.05 0.48542 2.6518 0.48542zm362.62 4.3374c3.1344 3.4972 3.3756 7.5953 0.8436 12.538-2.4102 4.5808-5.1831 6.0257-11.934 6.0257-4.3398 0-6.2688-0.72382-9.2828-3.3759l-3.857-3.493 3.8578-2.6532c2.2902-1.69 3.7371-3.7387 3.7371-5.4248-1e-4 -7.9566 10.729-10.369 16.636-3.6168zm-320.06 198.19c4.0988 4.5819 4.2194 8.7996 0.24066 12.658-3.7368 3.856-9.0411 3.9771-12.296 0.24-2.8935-3.1353-3.858-15.07-1.2058-16.756 2.7722-1.93 9.7648 0 13.261 3.8584zm277.27-4.2218c1.2052 0.48166 1.5675 2.6521 1.3262 8.0772-0.1211 6.0264-0.7233 7.9553-2.8931 9.6431-7.5943 6.1502-17.239-2.2902-12.658-11.09 2.7725-5.3044 9.4031-8.438 14.225-6.6303z"/> </g> <g fill="#ffb70d"> <path d="m339.1 865.3 0.58725 8.5039-6.6307 0.72315c-14.828 1.8064-23.266 6.9902-28.691 17.719-3.0142 5.9068-4.2192 7.1131-7.4748 7.8368-15.947 3.1156-23.917 6.745-28.303 13.611q101.39-0.00134 202.78-0.00224c-0.64117-1.223-1.2954-2.2092-1.8461-2.7598-3.496-3.7367-11.934-7.2347-21.94-9.2823l-8.0773-1.5675-3.9776-7.836c-5.1836-10.007-12.537-14.828-26.039-17.117l-9.0417-1.4495 0.70698-8.38-62.051 3.6e-4z"/> <path d="m299.74 768.52v0.00176c0.25132 0.1771 0.50987 0.35286 0.75983 0.52455 9.8853 6.5107 12.658 14.707 5.5453 16.397-4.7015 1.2047-8.92 6.0258-8.921 10.366 0 6.5096 4.7018 13.262 21.217 30.138 2.9211 2.9783 5.4038 5.5347 7.5192 7.797q44.253-0.0016 88.507-0.0016c2.5066-2.7212 5.495-5.8152 9.0944-9.4842 18.686-19.047 22.422-25.074 19.288-31.705-0.84346-1.9296-3.6157-4.3395-6.6302-5.7874-4.0985-1.9283-5.063-3.0138-5.1834-5.5455 8e-5 -4.0735 2.6526-7.365 11.034-12.702h-52.337l-89.876 2.4e-4z"/> </g> <g fill="#fff" fill-opacity=".60784"> <path d="m272.68 958.92h194.75l9e-5 85.213-194.75 0.0012 1.4e-4 -85.214"/> <path d="m473.78 558.87-0.95646 25.306q-6.7983 76.476-39.786 122.33-33.215 45.814-78.227 37.155-42.957-12.104-68.713-70.829-8.2522-18.982-13.595-41.368l-4.4893-23.014q-3.7008-23.753-3.7429-49.577 1.124-79.246 30.683-131.87 29.558-52.621 74.072-54.622 44.514 2.0006 74.072 54.622 29.558 52.623 30.682 131.87"/> </g> <g fill="#ffb70d"> <path d="m410.08 562.3 20.779 67.605-58.646-39.534-57.876 40.655 19.476-67.994-56.548-42.48 70.684-2.4879 22.925-66.908 24.208 66.456 70.719 1.1288-55.721 43.559zm17.311 62.393-19.516-63.491-34.15-12.69-0.01863 0.0256v0.00224l-9.3e-4 -6.7e-4 53.396 75.959 0.2901 0.19391zm-53.85-75.925-55.523 76.769 54.153-38.04 1.3696-38.731zm-90.072-27.019-0.64462 0.02213 53.225 39.982-0.05506 0.19686 37.558-13.417 0.00201-0.0956-90.083-26.688zm110.52-2.7426-20.219 29.367v-0.025l-0.09412-0.10605-2.6932-91.672-0.0441-0.1211-21.581 62.978-0.43473 0.99268 24.754 27.822 0.0029 0.1566 0.00537 0.0882 0.0892-0.03346-0.00329-0.06124 85.99-27.92 0.5226-0.4098-66.297-1.0586zm-20.235 29.394 0.01694-0.0257v0.01854l-0.01694 0.00716z"/> <path d="m373.72 548.37c-0.0447 0-0.0888 0.02161-0.11662 0.06035l-0.01924 0.0272v7.7e-4c-0.03616 0.04803-0.03676 0.11633-0.00101 0.16713l53.397 75.959 0.03712 0.036 0.28942 0.1977c0.02548 0.01667 0.05304 0.02485 0.08288 0.02393 0.02286 0 0.04612-0.00633 0.0663-0.01853 0.0471-0.02395 0.0769-0.0729 0.0769-0.1275v-0.0016l-0.00632-0.04115-19.515-63.491-0.08822-0.09302-34.15-12.69c-0.01721-0.00657-0.03515-0.00895-0.05243-0.00895z"/> <path d="m373.54 548.62c-0.04581 0-0.08857 0.02157-0.11673 0.05933l-55.521 76.77c-0.04108 0.05713-0.03449 0.13672 0.01435 0.18702 0.0285 0.02895 0.06622 0.04345 0.1044 0.04345 0.0285 0 0.057-0.0096 0.0816-0.026l54.152-38.039 0.06097-0.11404 1.3696-38.731c0.0033-0.06266-0.03677-0.121-0.0968-0.1419-0.0167-0.0067-0.03153-0.0079-0.0484-0.00737z"/> <path d="m283.46 521.6-0.00335 0.00164-0.6443 0.0192c-0.05953 0.00174-0.11434 0.04294-0.13256 0.1011-0.01929 0.0593 0.00262 0.12214 0.05142 0.1599l53.145 39.923-0.02774 0.09949c-0.01468 0.05139 0 0.10904 0.03971 0.14428 0.02785 0.02649 0.06335 0.0401 0.09951 0.0401 0.01654-0.00134 0.03281-0.00299 0.04908-0.00794l37.558-13.417 0.09547-0.1326 0.00403-0.0938c6.7e-4 -0.06736-0.04147-0.126-0.1048-0.1459l-90.085-26.687-0.04248-0.00636z"/> <path d="m370.93 456.3c-0.06238 6.7e-4 -0.11805 0.04077-0.13694 0.09703l-21.578 62.974-0.4347 0.98483 0.02486 0.15555 24.754 27.821c0.02851 0.03118 0.06696 0.04974 0.10978 0.04974 0.01715 0 0.0334-0.00336 0.04968-0.0097 0.05606-0.0216 0.09317-0.0769 0.09317-0.1373v-5e-4 -0.0034l-2.6929-91.669-0.00833-0.04511-0.04514-0.12261c-0.02048-0.05763-0.07618-0.09546-0.13586-0.09546z"/> <path d="m393.98 518.86c-0.04404 0-0.08914 0.0221-0.11435 0.0599-0.01129 0.01466-0.01727 0.0305-0.02293 0.04804l-0.0076 0.00106-20.077 29.16c-0.02387-0.0187-0.0574-0.02826-0.0882-0.02826-0.01687 0-0.03482 0.00391-0.05169 0.01129-0.05606 0.02087-0.09218 0.07627-0.09148 0.13637l0.00453 0.1541v0.00335l0.00507 0.08661c9e-4 0.04574 0.02582 0.0882 0.06326 0.11294 0.02454 0.01695 0.05344 0.0249 0.08261 0.0249 0.01593 0 0.03113-0.00234 0.04673-0.00795l0.09024-0.03285c0.04174-0.01464 0.07354-0.0481 0.08746-0.0882l-0.00754 0.00166 85.903-27.892 0.04548-0.02477 0.52222-0.4079c0.04766-0.0392 0.06655-0.1028 0.04766-0.1605-0.01889-0.05936-0.07354-0.09867-0.13552-0.0996l-66.296-1.058h-0.00537z"/> </g> <g fill="#3d5360" fill-opacity=".99608"> <path d="m132.46 959.85v0.0016l6.2e-4 -0.0016h-6.2e-4"/> <path d="m492.44 951.49v0.00174-0.00174 0.00174"/> </g> <g fill="#3c5360" fill-opacity=".99608"> <path d="m675.38 999.95h2.4e-4v6e-4 -6e-4h-2.4e-4 2.4e-4v6e-4q0-6e-4 -2.4e-4 -6e-4"/> </g> <g fill="#ffb70d" fill-opacity=".99608"> <path d="m166.43 1059.8 407.58 0.0016q-1.5e-4 35.674-3e-4 71.348-203.79 0.0024-407.58 0.0038 1.4e-4 -35.676 1.5e-4 -71.354"/> </g> </g> </svg>